<?xml version="1.0" encoding="UTF-8" standalone="no"?><svg xmlns="http://www.w3.org/2000/svg" xmlns:xlink="http://www.w3.org/1999/xlink" contentScriptType="application/ecmascript" contentStyleType="text/css" height="796px" preserveAspectRatio="none" style="width:4152px;height:796px;" version="1.1" viewBox="0 0 4152 796" width="4152px" zoomAndPan="magnify"><defs><filter height="300%" id="f15t527qu463we" width="300%" x="-1" y="-1"><feGaussianBlur result="blurOut" stdDeviation="2.0"/><feColorMatrix in="blurOut" result="blurOut2" type="matrix" values="0 0 0 0 0 0 0 0 0 0 0 0 0 0 0 0 0 0 .4 0"/><feOffset dx="4.0" dy="4.0" in="blurOut2" result="blurOut3"/><feBlend in="SourceGraphic" in2="blurOut3" mode="normal"/></filter></defs><g><!--cluster external--><polygon fill="#FFFFFF" filter="url(#f15t527qu463we)" points="30,77,279,77,286,99.2969,746,99.2969,746,574,30,574,30,77" style="stroke: #000000; stroke-width: 1.5;"/><line style="stroke: #000000; stroke-width: 1.5;" x1="30" x2="286" y1="99.2969" y2="99.2969"/><text fill="#000000" font-family="sans-serif" font-size="14" font-weight="bold" lengthAdjust="spacingAndGlyphs" textLength="243" x="34" y="91.9951">API zewnętrzne dla studentów</text><!--cluster przypadki użycia zewnętrzne--><polygon fill="#FFFFFF" filter="url(#f15t527qu463we)" points="62,128,300,128,307,150.2969,706,150.2969,706,542,62,542,62,128" style="stroke: #000000; stroke-width: 1.5;"/><line style="stroke: #000000; stroke-width: 1.5;" x1="62" x2="307" y1="150.2969" y2="150.2969"/><text fill="#000000" font-family="sans-serif" font-size="14" font-weight="bold" lengthAdjust="spacingAndGlyphs" textLength="232" x="66" y="142.9951">przypadki użycia zewnętrzne</text><!--cluster internal--><polygon fill="#FFFFFF" filter="url(#f15t527qu463we)" points="1105,77,1360,77,1367,99.2969,1938,99.2969,1938,574,1105,574,1105,77" style="stroke: #000000; stroke-width: 1.5;"/><line style="stroke: #000000; stroke-width: 1.5;" x1="1105" x2="1367" y1="99.2969" y2="99.2969"/><text fill="#000000" font-family="sans-serif" font-size="14" font-weight="bold" lengthAdjust="spacingAndGlyphs" textLength="249" x="1109" y="91.9951">API wewnętrzne dla dziekanatu</text><!--cluster przypadki użycia wewnętrzne--><polygon fill="#FFFFFF" filter="url(#f15t527qu463we)" points="1145,128,1388,128,1395,150.2969,1906,150.2969,1906,542,1145,542,1145,128" style="stroke: #000000; stroke-width: 1.5;"/><line style="stroke: #000000; stroke-width: 1.5;" x1="1145" x2="1395" y1="150.2969" y2="150.2969"/><text fill="#000000" font-family="sans-serif" font-size="14" font-weight="bold" lengthAdjust="spacingAndGlyphs" textLength="237" x="1149" y="142.9951">przypadki użycia wewnętrzne</text><!--cluster mail--><polygon fill="#FFFFFF" filter="url(#f15t527qu463we)" points="2606,614,2642,614,2649,636.2969,2986,636.2969,2986,784,2606,784,2606,614" style="stroke: #000000; stroke-width: 1.5;"/><line style="stroke: #000000; stroke-width: 1.5;" x1="2606" x2="2649" y1="636.2969" y2="636.2969"/><text fill="#000000" font-family="sans-serif" font-size="14" font-weight="bold" lengthAdjust="spacingAndGlyphs" textLength="30" x="2610" y="628.9951">Mail</text><!--cluster przypadki użycia microserwisu mail--><polygon fill="#FFFFFF" filter="url(#f15t527qu463we)" points="2646,665,2932,665,2939,687.2969,2954,687.2969,2954,752,2646,752,2646,665" style="stroke: #000000; stroke-width: 1.5;"/><line style="stroke: #000000; stroke-width: 1.5;" x1="2646" x2="2939" y1="687.2969" y2="687.2969"/><text fill="#000000" font-family="sans-serif" font-size="14" font-weight="bold" lengthAdjust="spacingAndGlyphs" textLength="280" x="2650" y="679.9951">przypadki użycia microserwisu mail</text><!--cluster rabbit--><path d="M2618.7286,456.8978 C2621.3476,449.8896 2625.2469,449.0909 2630.4796,454.4054 C2633.9583,446.8889 2640.2369,447.2653 2644.1996,453.9375 C2647.2889,449.2823 2652.629,448.243 2655.5609,454.1075 C2658.4838,448.5825 2663.5701,447.9307 2667.7514,452.603 C2670.2939,446.2676 2675.6833,445.9164 2679.7638,450.9826 C2684.4806,446.18 2687.8947,447.8683 2690.4939,453.2203 C2694.6414,446.467 2700.8261,448.0595 2703.9447,454.2865 C2706.9175,447.9315 2712.829,447.6314 2716.0822,454.0194 C2720.217,448.3026 2723.7396,449.3493 2727.4114,454.5019 C2737.1188,447.8775 2743.0588,450.4071 2745,462 C2745.7416,461.4035 2746.6076,461.5628 2746.8498,462.5745 C2753.5649,466.6374 2752.4954,470.6873 2747.5716,475.405 C2753.544,479.3795 2753.9718,484.463 2747.0018,487.8445 C2752.2856,490.1719 2753.3976,495.469 2748.5931,499.209 C2754.0653,503.2228 2752.8264,509.0782 2747.1025,511.7625 C2752.1253,515.7251 2752.1059,519.198 2746.7681,522.8481 C2752.9087,532.6197 2748.9207,540.0393 2738,542 C2738.9555,541.5936 2739.4558,541.9095 2739.4547,542.9571 C2736.4039,549.5934 2731.2652,550.6369 2726.4327,544.8201 C2723.9711,551.2189 2720.0519,550.9468 2715.6542,546.7988 C2712.2254,553.8396 2707.2112,554.343 2702.7393,547.7898 C2699.5763,554.3081 2693.908,554.2403 2690.5251,548.0003 C2688.2528,553.3057 2682.8983,554.88 2678.9577,549.8714 C2674.6547,556.2053 2669.7303,554.8549 2666.1622,549.094 C2662.1592,554.2643 2657.4277,551.9331 2655.5605,546.8793 C2652.1291,553.2402 2645.8022,553.8528 2642.3195,546.9304 C2636.9527,551.5003 2633.0426,549.373 2630.6441,543.5847 C2619.686,550.9333 2612.8148,548.5734 2611,535 C2612.0496,534.0574 2612.8804,534.5526 2613.1828,535.759 C2608.095,532.3917 2607.9547,528.6 2612.3358,524.5192 C2605.3329,521.0416 2604.8221,515.1952 2611.707,511.0684 C2605.6248,507.4212 2606.414,503.4321 2611.1054,499.2371 C2604.9084,495.9588 2605.9694,490.6072 2611.3379,487.5593 C2605.0515,483.807 2605.1711,477.7897 2611.6829,474.3723 C2603.8401,464.5512 2606.8322,458.622 2618,455 C2619.2209,455.2798 2619.359,455.9072 2618.7286,456.8978 " fill="#FFFFFF" style="stroke: #000000; stroke-width: 1.5;"/><text fill="#000000" font-family="sans-serif" font-size="14" font-weight="bold" lengthAdjust="spacingAndGlyphs" textLength="134" x="2611" y="472.9951">RabbitMQ kolejka</text><!--cluster auth--><polygon fill="#FFFFFF" filter="url(#f15t527qu463we)" points="1978,238,2290,238,2297,260.2969,2537,260.2969,2537,574,1978,574,1978,238" style="stroke: #000000; stroke-width: 1.5;"/><line style="stroke: #000000; stroke-width: 1.5;" x1="1978" x2="2297" y1="260.2969" y2="260.2969"/><text fill="#000000" font-family="sans-serif" font-size="14" font-weight="bold" lengthAdjust="spacingAndGlyphs" textLength="306" x="1982" y="252.9951">API JWT LDAP autoryzacja/autentykacja</text><!--cluster przypadki użycia auth--><polygon fill="#FFFFFF" filter="url(#f15t527qu463we)" points="2010,289,2188,289,2195,311.2969,2497,311.2969,2497,542,2010,542,2010,289" style="stroke: #000000; stroke-width: 1.5;"/><line style="stroke: #000000; stroke-width: 1.5;" x1="2010" x2="2195" y1="311.2969" y2="311.2969"/><text fill="#000000" font-family="sans-serif" font-size="14" font-weight="bold" lengthAdjust="spacingAndGlyphs" textLength="172" x="2014" y="303.9951">przypadki użycia auth</text><!--cluster PostgreSQL 1 instancja--><path d="M3006,225 C3006,215 3311.5,215 3311.5,215 C3311.5,215 3617,215 3617,225 L3617,572 C3617,582 3311.5,582 3311.5,582 C3311.5,582 3006,582 3006,572 L3006,225 " fill="#FFFFFF" filter="url(#f15t527qu463we)" style="stroke: #000000; stroke-width: 1.5;"/><path d="M3006,225 C3006,235 3311.5,235 3311.5,235 C3311.5,235 3617,235 3617,225 " fill="none" style="stroke: #000000; stroke-width: 1.5;"/><text fill="#000000" font-family="sans-serif" font-size="14" font-weight="bold" lengthAdjust="spacingAndGlyphs" textLength="183" x="3220" y="249.9951">PostgreSQL 1 instancja</text><!--cluster queuedb--><polygon fill="#FFFFFF" filter="url(#f15t527qu463we)" points="3038,281,3121,281,3128,303.2969,3585,303.2969,3585,550,3038,550,3038,281" style="stroke: #000000; stroke-width: 1.5;"/><line style="stroke: #000000; stroke-width: 1.5;" x1="3038" x2="3128" y1="303.2969" y2="303.2969"/><text fill="#000000" font-family="sans-serif" font-size="14" font-weight="bold" lengthAdjust="spacingAndGlyphs" textLength="77" x="3042" y="295.9951">queue_db</text><!--cluster PostgreSQL 2 instancja--><path d="M3641,391 C3641,381 3890.5,381 3890.5,381 C3890.5,381 4140,381 4140,391 L4140,572 C4140,582 3890.5,582 3890.5,582 C3890.5,582 3641,582 3641,572 L3641,391 " fill="#FFFFFF" filter="url(#f15t527qu463we)" style="stroke: #000000; stroke-width: 1.5;"/><path d="M3641,391 C3641,401 3890.5,401 3890.5,401 C3890.5,401 4140,401 4140,391 " fill="none" style="stroke: #000000; stroke-width: 1.5;"/><text fill="#000000" font-family="sans-serif" font-size="14" font-weight="bold" lengthAdjust="spacingAndGlyphs" textLength="183" x="3799" y="415.9951">PostgreSQL 2 instancja</text><!--cluster authdb--><polygon fill="#FFFFFF" filter="url(#f15t527qu463we)" points="3673,447,3819,447,3826,469.2969,4108,469.2969,4108,550,3673,550,3673,447" style="stroke: #000000; stroke-width: 1.5;"/><line style="stroke: #000000; stroke-width: 1.5;" x1="3673" x2="3826" y1="469.2969" y2="469.2969"/><text fill="#000000" font-family="sans-serif" font-size="14" font-weight="bold" lengthAdjust="spacingAndGlyphs" textLength="140" x="3677" y="461.9951">authentication_db</text><!--cluster ldap--><path d="M2793,432 C2793,422 2883.5,422 2883.5,422 C2883.5,422 2974,422 2974,432 L2974,550 C2974,560 2883.5,560 2883.5,560 C2883.5,560 2793,560 2793,550 L2793,432 " fill="#FFFFFF" filter="url(#f15t527qu463we)" style="stroke: #000000; stroke-width: 1.5;"/><path d="M2793,432 C2793,442 2883.5,442 2883.5,442 C2883.5,442 2974,442 2974,432 " fill="none" style="stroke: #000000; stroke-width: 1.5;"/><text fill="#000000" font-family="sans-serif" font-size="14" font-weight="bold" lengthAdjust="spacingAndGlyphs" textLength="71" x="2848" y="456.9951">LDAP PW</text><!--entity nginx--><path d="M885.6752,328.3509 C889.036,323.1283 892.5653,322.0876 896.6254,327.6402 C899.5594,321.6302 902.8288,321.3274 907.2942,326.1291 C911.4501,321.6032 915.8776,320.8872 919.2444,327.0142 C922.5683,320.783 927.6248,320.6367 931.1627,326.8085 C933.8881,321.2102 938.9997,321.1999 942.7381,325.6403 C945.0361,320.3725 949.937,319.3924 953.8766,323.7384 C957.8092,318.7879 963.3109,319.6088 965.2753,325.7595 C968.5363,320.0932 972.6879,320.0591 976.6468,325.0121 C980.5233,320.2526 984.0395,321.4747 986.2284,326.6411 C990.5315,320.068 994.6867,319.6775 999.2646,326.371 C1004.0799,321.2263 1007.8623,321.6881 1010.4536,328.4593 C1012.9384,324.2063 1017.9307,323.1516 1020.5627,328.3011 C1028.2334,330.9196 1030.5435,336.8792 1024.1672,342.9533 C1030.9909,349.1534 1028.9102,355.6266 1020.4855,358.1269 C1017.4962,363.2031 1012.7183,363.7121 1009.6211,358.238 C1006.7192,363.6586 1001.5235,364.53 997.9337,358.9702 C995.1952,364.1093 991.9952,364.4559 987.6251,360.9057 C984.2077,365.9879 980.6246,367.101 976.774,361.3391 C973.5097,366.1564 968.1435,366.3912 965.2832,360.8894 C962.0387,367.6922 957.3702,367.7844 952.1917,363.0919 C948.0662,367.0171 944.2418,367.1027 941.76,361.3246 C938.232,367.0521 933.2234,366.4652 929.8263,361.1826 C925.4675,365.1565 921.4269,364.882 918.5288,359.4315 C915.4324,365.018 910.844,366.4322 906.781,360.4097 C903.1245,364.6923 897.4712,365.068 895.4417,358.6807 C892.3344,363.177 889.1062,362.9719 885.714,359.0081 C875.3496,357.9447 873.1518,352.8368 876.6014,343.6023 C872.7378,335.6213 877.0349,328.8927 885.6752,328.3509 " fill="#FFFFFF" style="stroke: #000000; stroke-width: 1.5;"/><text fill="#000000" font-family="sans-serif" font-size="14" lengthAdjust="spacingAndGlyphs" textLength="122" x="891" y="346.9951">nginx api gateway</text><!--entity ActiveIssuesInQueueQuery--><rect fill="#FEFECE" filter="url(#f15t527qu463we)" height="36.2969" style="stroke: #A80036; stroke-width: 1.5;" width="206" x="78" y="163"/><rect fill="#FEFECE" height="5" style="stroke: #A80036; stroke-width: 1.5;" width="10" x="73" y="168"/><rect fill="#FEFECE" height="5" style="stroke: #A80036; stroke-width: 1.5;" width="10" x="73" y="189.2969"/><text fill="#000000" font-family="sans-serif" font-size="14" lengthAdjust="spacingAndGlyphs" textLength="186" x="88" y="185.9951">ActiveIssuesInQueueQuery</text><!--entity UserDeleteIssueCommand--><rect fill="#FEFECE" filter="url(#f15t527qu463we)" height="36.2969" style="stroke: #A80036; stroke-width: 1.5;" width="206" x="319" y="163"/><rect fill="#FEFECE" height="5" style="stroke: #A80036; stroke-width: 1.5;" width="10" x="314" y="168"/><rect fill="#FEFECE" height="5" style="stroke: #A80036; stroke-width: 1.5;" width="10" x="314" y="189.2969"/><text fill="#000000" font-family="sans-serif" font-size="14" lengthAdjust="spacingAndGlyphs" textLength="186" x="329" y="185.9951">UserDeleteIssueCommand</text><!--entity UserIssueQuery--><rect fill="#FEFECE" filter="url(#f15t527qu463we)" height="36.2969" style="stroke: #A80036; stroke-width: 1.5;" width="130" x="560" y="163"/><rect fill="#FEFECE" height="5" style="stroke: #A80036; stroke-width: 1.5;" width="10" x="555" y="168"/><rect fill="#FEFECE" height="5" style="stroke: #A80036; stroke-width: 1.5;" width="10" x="555" y="189.2969"/><text fill="#000000" font-family="sans-serif" font-size="14" lengthAdjust="spacingAndGlyphs" textLength="110" x="570" y="185.9951">UserIssueQuery</text><!--entity UserPatchIssueCommand--><rect fill="#FEFECE" filter="url(#f15t527qu463we)" height="36.2969" style="stroke: #A80036; stroke-width: 1.5;" width="199" x="81.5" y="324"/><rect fill="#FEFECE" height="5" style="stroke: #A80036; stroke-width: 1.5;" width="10" x="76.5" y="329"/><rect fill="#FEFECE" height="5" style="stroke: #A80036; stroke-width: 1.5;" width="10" x="76.5" y="350.2969"/><text fill="#000000" font-family="sans-serif" font-size="14" lengthAdjust="spacingAndGlyphs" textLength="179" x="91.5" y="346.9951">UserPatchIssueCommand</text><!--entity UserSubmitIssueCommand--><rect fill="#FEFECE" filter="url(#f15t527qu463we)" height="36.2969" style="stroke: #A80036; stroke-width: 1.5;" width="208" x="316" y="324"/><rect fill="#FEFECE" height="5" style="stroke: #A80036; stroke-width: 1.5;" width="10" x="311" y="329"/><rect fill="#FEFECE" height="5" style="stroke: #A80036; stroke-width: 1.5;" width="10" x="311" y="350.2969"/><text fill="#000000" font-family="sans-serif" font-size="14" lengthAdjust="spacingAndGlyphs" textLength="188" x="326" y="346.9951">UserSubmitIssueCommand</text><!--entity QueueQuery--><rect fill="#FEFECE" filter="url(#f15t527qu463we)" height="36.2969" style="stroke: #A80036; stroke-width: 1.5;" width="108" x="559" y="324"/><rect fill="#FEFECE" height="5" style="stroke: #A80036; stroke-width: 1.5;" width="10" x="554" y="329"/><rect fill="#FEFECE" height="5" style="stroke: #A80036; stroke-width: 1.5;" width="10" x="554" y="350.2969"/><text fill="#000000" font-family="sans-serif" font-size="14" lengthAdjust="spacingAndGlyphs" textLength="88" x="569" y="346.9951">QueueQuery</text><!--entity QueuesQuery--><rect fill="#FEFECE" filter="url(#f15t527qu463we)" height="36.2969" style="stroke: #A80036; stroke-width: 1.5;" width="116" x="123" y="490"/><rect fill="#FEFECE" height="5" style="stroke: #A80036; stroke-width: 1.5;" width="10" x="118" y="495"/><rect fill="#FEFECE" height="5" style="stroke: #A80036; stroke-width: 1.5;" width="10" x="118" y="516.2969"/><text fill="#000000" font-family="sans-serif" font-size="14" lengthAdjust="spacingAndGlyphs" textLength="96" x="133" y="512.9951">QueuesQuery</text><!--entity UserQueuesQuery--><rect fill="#FEFECE" filter="url(#f15t527qu463we)" height="36.2969" style="stroke: #A80036; stroke-width: 1.5;" width="148" x="274" y="490"/><rect fill="#FEFECE" height="5" style="stroke: #A80036; stroke-width: 1.5;" width="10" x="269" y="495"/><rect fill="#FEFECE" height="5" style="stroke: #A80036; stroke-width: 1.5;" width="10" x="269" y="516.2969"/><text fill="#000000" font-family="sans-serif" font-size="14" lengthAdjust="spacingAndGlyphs" textLength="128" x="284" y="512.9951">UserQueuesQuery</text><!--entity ActiveIssuesQuery--><rect fill="#FEFECE" filter="url(#f15t527qu463we)" height="36.2969" style="stroke: #A80036; stroke-width: 1.5;" width="147" x="1206.5" y="163"/><rect fill="#FEFECE" height="5" style="stroke: #A80036; stroke-width: 1.5;" width="10" x="1201.5" y="168"/><rect fill="#FEFECE" height="5" style="stroke: #A80036; stroke-width: 1.5;" width="10" x="1201.5" y="189.2969"/><text fill="#000000" font-family="sans-serif" font-size="14" lengthAdjust="spacingAndGlyphs" textLength="127" x="1216.5" y="185.9951">ActiveIssuesQuery</text><!--entity IssueDetailsQuery--><rect fill="#FEFECE" filter="url(#f15t527qu463we)" height="36.2969" style="stroke: #A80036; stroke-width: 1.5;" width="145" x="1388.5" y="163"/><rect fill="#FEFECE" height="5" style="stroke: #A80036; stroke-width: 1.5;" width="10" x="1383.5" y="168"/><rect fill="#FEFECE" height="5" style="stroke: #A80036; stroke-width: 1.5;" width="10" x="1383.5" y="189.2969"/><text fill="#000000" font-family="sans-serif" font-size="14" lengthAdjust="spacingAndGlyphs" textLength="125" x="1398.5" y="185.9951">IssueDetailsQuery</text><!--entity IssueProcessingCompleteCommand--><rect fill="#FEFECE" filter="url(#f15t527qu463we)" height="36.2969" style="stroke: #A80036; stroke-width: 1.5;" width="272" x="1569" y="163"/><rect fill="#FEFECE" height="5" style="stroke: #A80036; stroke-width: 1.5;" width="10" x="1564" y="168"/><rect fill="#FEFECE" height="5" style="stroke: #A80036; stroke-width: 1.5;" width="10" x="1564" y="189.2969"/><text fill="#000000" font-family="sans-serif" font-size="14" lengthAdjust="spacingAndGlyphs" textLength="252" x="1579" y="185.9951">IssueProcessingCompleteCommand</text><!--entity IssueProcessingStartCommand--><rect fill="#FEFECE" filter="url(#f15t527qu463we)" height="36.2969" style="stroke: #A80036; stroke-width: 1.5;" width="237" x="1161.5" y="324"/><rect fill="#FEFECE" height="5" style="stroke: #A80036; stroke-width: 1.5;" width="10" x="1156.5" y="329"/><rect fill="#FEFECE" height="5" style="stroke: #A80036; stroke-width: 1.5;" width="10" x="1156.5" y="350.2969"/><text fill="#000000" font-family="sans-serif" font-size="14" lengthAdjust="spacingAndGlyphs" textLength="217" x="1171.5" y="346.9951">IssueProcessingStartCommand</text><!--entity IssueRemoveCommand--><rect fill="#FEFECE" filter="url(#f15t527qu463we)" height="36.2969" style="stroke: #A80036; stroke-width: 1.5;" width="185" x="1433.5" y="324"/><rect fill="#FEFECE" height="5" style="stroke: #A80036; stroke-width: 1.5;" width="10" x="1428.5" y="329"/><rect fill="#FEFECE" height="5" style="stroke: #A80036; stroke-width: 1.5;" width="10" x="1428.5" y="350.2969"/><text fill="#000000" font-family="sans-serif" font-size="14" lengthAdjust="spacingAndGlyphs" textLength="165" x="1443.5" y="346.9951">IssueRemoveCommand</text><!--entity IssuesQuery--><rect fill="#FEFECE" filter="url(#f15t527qu463we)" height="36.2969" style="stroke: #A80036; stroke-width: 1.5;" width="106" x="1654" y="324"/><rect fill="#FEFECE" height="5" style="stroke: #A80036; stroke-width: 1.5;" width="10" x="1649" y="329"/><rect fill="#FEFECE" height="5" style="stroke: #A80036; stroke-width: 1.5;" width="10" x="1649" y="350.2969"/><text fill="#000000" font-family="sans-serif" font-size="14" lengthAdjust="spacingAndGlyphs" textLength="86" x="1664" y="346.9951">IssuesQuery</text><!--entity IssueCategoriesQuery--><rect fill="#FEFECE" filter="url(#f15t527qu463we)" height="36.2969" style="stroke: #A80036; stroke-width: 1.5;" width="173" x="1161.5" y="490"/><rect fill="#FEFECE" height="5" style="stroke: #A80036; stroke-width: 1.5;" width="10" x="1156.5" y="495"/><rect fill="#FEFECE" height="5" style="stroke: #A80036; stroke-width: 1.5;" width="10" x="1156.5" y="516.2969"/><text fill="#000000" font-family="sans-serif" font-size="14" lengthAdjust="spacingAndGlyphs" textLength="153" x="1171.5" y="512.9951">IssueCategoriesQuery</text><!--entity IssueCategoryRemoveCommand--><rect fill="#FEFECE" filter="url(#f15t527qu463we)" height="36.2969" style="stroke: #A80036; stroke-width: 1.5;" width="247" x="1369.5" y="490"/><rect fill="#FEFECE" height="5" style="stroke: #A80036; stroke-width: 1.5;" width="10" x="1364.5" y="495"/><rect fill="#FEFECE" height="5" style="stroke: #A80036; stroke-width: 1.5;" width="10" x="1364.5" y="516.2969"/><text fill="#000000" font-family="sans-serif" font-size="14" lengthAdjust="spacingAndGlyphs" textLength="227" x="1379.5" y="512.9951">IssueCategoryRemoveCommand</text><!--entity IssueCategorySubmitCommand--><rect fill="#FEFECE" filter="url(#f15t527qu463we)" height="36.2969" style="stroke: #A80036; stroke-width: 1.5;" width="238" x="1652" y="490"/><rect fill="#FEFECE" height="5" style="stroke: #A80036; stroke-width: 1.5;" width="10" x="1647" y="495"/><rect fill="#FEFECE" height="5" style="stroke: #A80036; stroke-width: 1.5;" width="10" x="1647" y="516.2969"/><text fill="#000000" font-family="sans-serif" font-size="14" lengthAdjust="spacingAndGlyphs" textLength="218" x="1662" y="512.9951">IssueCategorySubmitCommand</text><!--entity TokenGenerationMessageConsumer--><rect fill="#FEFECE" filter="url(#f15t527qu463we)" height="36.2969" style="stroke: #A80036; stroke-width: 1.5;" width="276" x="2662" y="700"/><rect fill="#FEFECE" height="5" style="stroke: #A80036; stroke-width: 1.5;" width="10" x="2657" y="705"/><rect fill="#FEFECE" height="5" style="stroke: #A80036; stroke-width: 1.5;" width="10" x="2657" y="726.2969"/><text fill="#000000" font-family="sans-serif" font-size="14" lengthAdjust="spacingAndGlyphs" textLength="256" x="2672" y="722.9951">TokenGenerationMessageConsumer</text><!--entity queue--><rect fill="#FEFECE" filter="url(#f15t527qu463we)" height="36.2969" style="stroke: #A80036; stroke-width: 1.5;" width="65" x="2656.5" y="490"/><rect fill="#FEFECE" height="5" style="stroke: #A80036; stroke-width: 1.5;" width="10" x="2651.5" y="495"/><rect fill="#FEFECE" height="5" style="stroke: #A80036; stroke-width: 1.5;" width="10" x="2651.5" y="516.2969"/><text fill="#000000" font-family="sans-serif" font-size="14" lengthAdjust="spacingAndGlyphs" textLength="45" x="2666.5" y="512.9951">queue</text><!--entity LogTokenGenerationCommand--><rect fill="#FEFECE" filter="url(#f15t527qu463we)" height="36.2969" style="stroke: #A80036; stroke-width: 1.5;" width="237" x="2026.5" y="324"/><rect fill="#FEFECE" height="5" style="stroke: #A80036; stroke-width: 1.5;" width="10" x="2021.5" y="329"/><rect fill="#FEFECE" height="5" style="stroke: #A80036; stroke-width: 1.5;" width="10" x="2021.5" y="350.2969"/><text fill="#000000" font-family="sans-serif" font-size="14" lengthAdjust="spacingAndGlyphs" textLength="217" x="2036.5" y="346.9951">LogTokenGenerationCommand</text><!--entity TokenGenerationQuery--><rect fill="#FEFECE" filter="url(#f15t527qu463we)" height="36.2969" style="stroke: #A80036; stroke-width: 1.5;" width="182" x="2299" y="324"/><rect fill="#FEFECE" height="5" style="stroke: #A80036; stroke-width: 1.5;" width="10" x="2294" y="329"/><rect fill="#FEFECE" height="5" style="stroke: #A80036; stroke-width: 1.5;" width="10" x="2294" y="350.2969"/><text fill="#000000" font-family="sans-serif" font-size="14" lengthAdjust="spacingAndGlyphs" textLength="162" x="2309" y="346.9951">TokenGenerationQuery</text><!--entity TokenRevocationCommand--><rect fill="#FEFECE" filter="url(#f15t527qu463we)" height="36.2969" style="stroke: #A80036; stroke-width: 1.5;" width="212" x="2039" y="490"/><rect fill="#FEFECE" height="5" style="stroke: #A80036; stroke-width: 1.5;" width="10" x="2034" y="495"/><rect fill="#FEFECE" height="5" style="stroke: #A80036; stroke-width: 1.5;" width="10" x="2034" y="516.2969"/><text fill="#000000" font-family="sans-serif" font-size="14" lengthAdjust="spacingAndGlyphs" textLength="192" x="2049" y="512.9951">TokenRevocationCommand</text><!--entity TokenValidationQuery--><rect fill="#FEFECE" filter="url(#f15t527qu463we)" height="36.2969" style="stroke: #A80036; stroke-width: 1.5;" width="171" x="2286.5" y="490"/><rect fill="#FEFECE" height="5" style="stroke: #A80036; stroke-width: 1.5;" width="10" x="2281.5" y="495"/><rect fill="#FEFECE" height="5" style="stroke: #A80036; stroke-width: 1.5;" width="10" x="2281.5" y="516.2969"/><text fill="#000000" font-family="sans-serif" font-size="14" lengthAdjust="spacingAndGlyphs" textLength="151" x="2296.5" y="512.9951">TokenValidationQuery</text><!--entity field_of_study--><rect fill="#FEFECE" filter="url(#f15t527qu463we)" height="36.2969" style="stroke: #A80036; stroke-width: 1.5;" width="113" x="3081.5" y="324"/><rect fill="#FEFECE" height="5" style="stroke: #A80036; stroke-width: 1.5;" width="10" x="3076.5" y="329"/><rect fill="#FEFECE" height="5" style="stroke: #A80036; stroke-width: 1.5;" width="10" x="3076.5" y="350.2969"/><text fill="#000000" font-family="sans-serif" font-size="14" lengthAdjust="spacingAndGlyphs" textLength="93" x="3091.5" y="346.9951">field_of_study</text><!--entity issue--><rect fill="#FEFECE" filter="url(#f15t527qu463we)" height="36.2969" style="stroke: #A80036; stroke-width: 1.5;" width="57" x="3229.5" y="324"/><rect fill="#FEFECE" height="5" style="stroke: #A80036; stroke-width: 1.5;" width="10" x="3224.5" y="329"/><rect fill="#FEFECE" height="5" style="stroke: #A80036; stroke-width: 1.5;" width="10" x="3224.5" y="350.2969"/><text fill="#000000" font-family="sans-serif" font-size="14" lengthAdjust="spacingAndGlyphs" textLength="37" x="3239.5" y="346.9951">issue</text><!--entity issue_category--><rect fill="#FEFECE" filter="url(#f15t527qu463we)" height="36.2969" style="stroke: #A80036; stroke-width: 1.5;" width="124" x="3322" y="324"/><rect fill="#FEFECE" height="5" style="stroke: #A80036; stroke-width: 1.5;" width="10" x="3317" y="329"/><rect fill="#FEFECE" height="5" style="stroke: #A80036; stroke-width: 1.5;" width="10" x="3317" y="350.2969"/><text fill="#000000" font-family="sans-serif" font-size="14" lengthAdjust="spacingAndGlyphs" textLength="104" x="3332" y="346.9951">issue_category</text><!--entity queue_--><rect fill="#FEFECE" filter="url(#f15t527qu463we)" height="36.2969" style="stroke: #A80036; stroke-width: 1.5;" width="72" x="3070" y="490"/><rect fill="#FEFECE" height="5" style="stroke: #A80036; stroke-width: 1.5;" width="10" x="3065" y="495"/><rect fill="#FEFECE" height="5" style="stroke: #A80036; stroke-width: 1.5;" width="10" x="3065" y="516.2969"/><text fill="#000000" font-family="sans-serif" font-size="14" lengthAdjust="spacingAndGlyphs" textLength="52" x="3080" y="512.9951">queue_</text><!--entity active_issue_view--><rect fill="#FEFECE" filter="url(#f15t527qu463we)" height="36.2969" style="stroke: #A80036; stroke-width: 1.5;" width="141" x="3177.5" y="490"/><rect fill="#FEFECE" height="5" style="stroke: #A80036; stroke-width: 1.5;" width="10" x="3172.5" y="495"/><rect fill="#FEFECE" height="5" style="stroke: #A80036; stroke-width: 1.5;" width="10" x="3172.5" y="516.2969"/><text fill="#000000" font-family="sans-serif" font-size="14" lengthAdjust="spacingAndGlyphs" textLength="121" x="3187.5" y="512.9951">active_issue_view</text><!--entity issue_processing_est_view--><rect fill="#FEFECE" filter="url(#f15t527qu463we)" height="36.2969" style="stroke: #A80036; stroke-width: 1.5;" width="207" x="3353.5" y="490"/><rect fill="#FEFECE" height="5" style="stroke: #A80036; stroke-width: 1.5;" width="10" x="3348.5" y="495"/><rect fill="#FEFECE" height="5" style="stroke: #A80036; stroke-width: 1.5;" width="10" x="3348.5" y="516.2969"/><text fill="#000000" font-family="sans-serif" font-size="14" lengthAdjust="spacingAndGlyphs" textLength="187" x="3363.5" y="512.9951">issue_processing_est_view</text><!--entity revoked_jwt_token--><rect fill="#FEFECE" filter="url(#f15t527qu463we)" height="36.2969" style="stroke: #A80036; stroke-width: 1.5;" width="149" x="3934.5" y="490"/><rect fill="#FEFECE" height="5" style="stroke: #A80036; stroke-width: 1.5;" width="10" x="3929.5" y="495"/><rect fill="#FEFECE" height="5" style="stroke: #A80036; stroke-width: 1.5;" width="10" x="3929.5" y="516.2969"/><text fill="#000000" font-family="sans-serif" font-size="14" lengthAdjust="spacingAndGlyphs" textLength="129" x="3944.5" y="512.9951">revoked_jwt_token</text><!--entity token_generation_audit--><rect fill="#FEFECE" filter="url(#f15t527qu463we)" height="36.2969" style="stroke: #A80036; stroke-width: 1.5;" width="183" x="3716.5" y="490"/><rect fill="#FEFECE" height="5" style="stroke: #A80036; stroke-width: 1.5;" width="10" x="3711.5" y="495"/><rect fill="#FEFECE" height="5" style="stroke: #A80036; stroke-width: 1.5;" width="10" x="3711.5" y="516.2969"/><text fill="#000000" font-family="sans-serif" font-size="14" lengthAdjust="spacingAndGlyphs" textLength="163" x="3726.5" y="512.9951">token_generation_audit</text><!--entity użytkownicy--><polygon fill="#FFFFFF" filter="url(#f15t527qu463we)" points="2836,480,2882,480,2889,501,2950,501,2950,535.5938,2836,535.5938,2836,480" style="stroke: #000000; stroke-width: 1.5;"/><line style="stroke: #000000; stroke-width: 1.5;" x1="2836" x2="2889" y1="501" y2="501"/><text fill="#000000" font-family="sans-serif" font-size="14" lengthAdjust="spacingAndGlyphs" textLength="84" x="2846" y="520.9951">użytkownicy</text><!--entity https--><ellipse cx="779" cy="342" fill="#FEFECE" filter="url(#f15t527qu463we)" rx="8" ry="8" style="stroke: #A80036; stroke-width: 2.0;"/><text fill="#000000" font-family="sans-serif" font-size="14" lengthAdjust="spacingAndGlyphs" textLength="36" x="761" y="371.9951">https</text><!--entity external_port--><ellipse cx="1971" cy="181" fill="#FEFECE" filter="url(#f15t527qu463we)" rx="8" ry="8" style="stroke: #A80036; stroke-width: 2.0;"/><text fill="#000000" font-family="sans-serif" font-size="14" lengthAdjust="spacingAndGlyphs" textLength="90" x="1926" y="210.9951">external_port</text><!--entity internal_port--><ellipse cx="2024" cy="181" fill="#FEFECE" filter="url(#f15t527qu463we)" rx="8" ry="8" style="stroke: #A80036; stroke-width: 2.0;"/><text fill="#000000" font-family="sans-serif" font-size="14" lengthAdjust="spacingAndGlyphs" textLength="86" x="1981" y="210.9951">internal_port</text><!--entity auth_port--><ellipse cx="1072" cy="342" fill="#FEFECE" filter="url(#f15t527qu463we)" rx="8" ry="8" style="stroke: #A80036; stroke-width: 2.0;"/><text fill="#000000" font-family="sans-serif" font-size="14" lengthAdjust="spacingAndGlyphs" textLength="66" x="1039" y="371.9951">auth_port</text><!--entity queue_db_port--><ellipse cx="832" cy="342" fill="#FEFECE" filter="url(#f15t527qu463we)" rx="8" ry="8" style="stroke: #A80036; stroke-width: 2.0;"/><text fill="#000000" font-family="sans-serif" font-size="14" lengthAdjust="spacingAndGlyphs" textLength="105" x="779.5" y="371.9951">queue_db_port</text><!--entity auth_db_port--><ellipse cx="2570" cy="508" fill="#FEFECE" filter="url(#f15t527qu463we)" rx="8" ry="8" style="stroke: #A80036; stroke-width: 2.0;"/><text fill="#000000" font-family="sans-serif" font-size="14" lengthAdjust="spacingAndGlyphs" textLength="91" x="2524.5" y="537.9951">auth_db_port</text><!--link https to nginx--><path d="M777.72,332.961 C774.859,308.869 770.671,242.533 805,207 C810.544,201.262 814.572,203.895 822.5,203 C838.278,201.22 844.839,198.118 858,207 C899.665,235.117 928.47,288.382 942.405,318.926 " fill="none" id="https-nginx" style="stroke: #A80036; stroke-width: 1.0;"/><!--link external to nginx--><path d="M746.1268,181.7243 C747.7067,181.7005 749.4902,181.6881 751.4532,181.6965 C759.3051,181.73 770.0284,182.0953 782.0805,183.3865 C806.1847,185.969 835.6045,192.2555 858,207 C897.99,233.328 926.059,283.044 940.575,313.958 " fill="none" id="external-nginx" style="stroke: #A80036; stroke-width: 1.0;"/><polygon fill="#A80036" points="942.789,318.752,942.6487,308.9041,940.6934,314.2123,935.3853,312.257,942.789,318.752" style="stroke: #A80036; stroke-width: 1.0;"/><!--link internal to nginx--><path d="M1104.8936,183.3354 C1104.8232,183.3487 1104.7524,183.3622 1104.6812,183.3757 C1100.1275,184.2427 1094.035,185.5666 1087.25,187.4764 C1073.68,191.296 1057.34,197.4595 1045,207 C1007.57,235.938 979.39,284.174 964.324,314.196 " fill="none" id="internal-nginx" style="stroke: #A80036; stroke-width: 1.0;"/><polygon fill="#A80036" points="962.019,318.852,969.5976,312.5619,964.2379,314.3713,962.4285,309.0117,962.019,318.852" style="stroke: #A80036; stroke-width: 1.0;"/><!--link external_port to external--><path d="M1969.29,171.62 C1963.66,143.881 1942.88,62.234 1888.5,31 C1813.93,-11.833 1198.96,14.795 1114.5,31 C1028.815,47.4405 937.8033,83.1472 866.7284,115.5988 C831.1909,131.8245 800.6377,147.2364 778.2267,159.0194 C767.0211,164.9108 757.8512,169.8951 751.1115,173.6201 C749.4266,174.5514 747.8935,175.404 746.5186,176.1723 C746.3467,176.2684 746.1773,176.3631 746.0104,176.4565 " fill="none" id="external_port-external" style="stroke: #A80036; stroke-width: 1.0;"/><!--link internal_port to internal--><path d="M2024.93,171.772 C2027.18,143.728 2029.44,59.682 1979.5,31 C1940.14,8.394 1201.86,8.394 1162.5,31 C1147.995,39.3315 1137.5919,52.2092 1130.1594,66.9935 C1129.2303,68.8415 1128.3477,70.7193 1127.5092,72.6218 C1127.09,73.573 1126.6818,74.5304 1126.2844,75.4933 C1126.0857,75.9748 1125.8897,76.4576 1125.6964,76.9418 " fill="none" id="internal_port-internal" style="stroke: #A80036; stroke-width: 1.0;"/><!--link auth_port to auth--><path d="M1074.17,332.724 C1080.46,308.042 1101.09,240.374 1145,207 C1151.35,202.172 1154.57,203.895 1162.5,203 C1198.85,198.898 2443.15,198.898 2479.5,203 C2487.43,203.895 2491.34,201.381 2497,207 C2502.215,212.1739 2506.6416,218.0312 2510.3935,224.3356 C2512.2695,227.4878 2513.9769,230.7518 2515.5298,234.0981 C2515.918,234.9346 2516.2966,235.7763 2516.6657,236.6227 C2516.8503,237.0459 2517.0325,253.8714 2517.2124,254.2969 " fill="none" id="auth_port-auth" style="stroke: #A80036; stroke-width: 1.0;"/><!--link internal to auth_port--><path d="M1104.9881,213.0607 C1104.9356,213.2641 1104.883,213.4682 1104.8302,213.6729 C1104.7246,214.0824 1104.6183,214.4945 1104.5113,214.9093 C1104.0835,216.5684 1103.6448,218.2694 1103.1967,220.0071 C1101.4043,226.9578 1099.4603,234.4965 1097.4488,242.2976 C1089.4025,273.502 1080.275,308.9045 1075.44,327.669 " fill="none" id="internal-auth_port" style="stroke: #A80036; stroke-width: 1.0;"/><polygon fill="#A80036" points="1074.14,332.703,1080.2581,324.9849,1075.3869,327.861,1072.5109,322.9898,1074.14,332.703" style="stroke: #A80036; stroke-width: 1.0;"/><!--link external to auth_port--><path d="M746.0325,182.0875 C747.6228,182.1074 749.4315,182.1312 751.4427,182.1596 C759.4875,182.2729 770.7715,182.458 784.2699,182.7495 C811.2665,183.3326 847.1204,184.3415 883.6321,186.0543 C956.6555,189.4798 1032.31,195.7205 1045,207 C1079.78,237.909 1077.12,300.068 1073.97,327.483 " fill="none" id="external-auth_port" style="stroke: #A80036; stroke-width: 1.0;"/><polygon fill="#A80036" points="1073.31,332.782,1078.4002,324.3505,1073.933,327.821,1070.4625,323.3537,1073.31,332.782" style="stroke: #A80036; stroke-width: 1.0;"/><!--link rabbit to mail--><path d="M2614,550.8594 C2614,553.4433 2614,556.108 2614,558.842 C2614,564.3099 2614,570.0549 2614,575.9845 C2614,587.8436 2614,600.4413 2614,613.0382 C2614,613.235 2614,613.4318 2614,613.6287 " fill="none" id="rabbit-mail" style="stroke: #A80036; stroke-width: 1.0;"/><polygon fill="#A80036" points="2614,613.6287,2618,604.6287,2614,608.6287,2610,604.6287,2614,613.6287" style="stroke: #A80036; stroke-width: 1.0;"/><!--link auth to rabbit--><path d="M2537.2035,344.0905 C2537.4985,344.1393 2537.7999,344.1901 2538.1075,344.2429 C2543.0288,345.0879 2549.525,346.4548 2556.525,348.6051 C2570.525,352.9058 2586.54,360.34 2596,373 C2604.85,384.8465 2610.4344,398.9776 2613.8244,413.5515 C2615.5194,420.8384 2616.6658,428.236 2617.3975,435.514 C2617.7634,439.1531 2618.0255,442.7622 2618.2008,446.3127 C2618.2118,446.5346 2618.2224,446.7562 2618.2326,446.9777 " fill="none" id="auth-rabbit" style="stroke: #A80036; stroke-width: 1.0;"/><polygon fill="#A80036" points="2618.2326,446.9777,2621.811,437.8019,2618.0008,441.983,2613.8197,438.1728,2618.2326,446.9777" style="stroke: #A80036; stroke-width: 1.0;"/><!--link internal to queue_db_port--><path d="M1104.7621,182.232 C1104.58,182.2375 1104.3953,182.243 1104.2077,182.2487 C1103.4576,182.2713 1102.6638,182.2956 1101.8279,182.3214 C1095.1406,182.5284 1085.7609,182.8404 1074.5413,183.2716 C1052.102,184.1341 1022.3028,185.4736 991.9634,187.4044 C931.2845,191.266 868.4445,197.493 858,207 C823.641,238.274 826.66,300.239 829.957,327.543 " fill="none" id="internal-queue_db_port" style="stroke: #A80036; stroke-width: 1.0;"/><polygon fill="#A80036" points="830.652,332.82,833.4426,323.3748,829.9991,327.8628,825.5111,324.4193,830.652,332.82" style="stroke: #A80036; stroke-width: 1.0;"/><!--link external to queue_db_port--><path d="M746.0392,182.5524 C746.329,182.5816 746.6251,182.6123 746.9274,182.6446 C751.7633,183.1613 758.1627,184.0876 765.1009,185.7438 C778.9773,189.056 795.009,195.2875 805,207 C835.051,242.229 834.978,301.601 833.244,327.847 " fill="none" id="external-queue_db_port" style="stroke: #A80036; stroke-width: 1.0;"/><polygon fill="#A80036" points="832.859,332.924,837.5289,324.2527,833.2376,327.9384,829.5519,323.647,832.859,332.924" style="stroke: #A80036; stroke-width: 1.0;"/><!--link auth to auth_db_port--><path d="M2537.0697,375.2808 C2537.1225,375.4921 2537.1755,375.7041 2537.2287,375.9168 C2537.335,376.3421 2537.4421,376.7702 2537.5498,377.2011 C2537.9806,378.9245 2538.4223,380.6911 2538.8734,382.4957 C2540.678,389.7141 2542.6344,397.5399 2544.6575,405.6326 C2552.75,438.0035 2561.91,474.6455 2566.69,493.773 " fill="none" id="auth-auth_db_port" style="stroke: #A80036; stroke-width: 1.0;"/><polygon fill="#A80036" points="2567.97,498.888,2569.6704,489.187,2566.7587,494.037,2561.9088,491.1252,2567.97,498.888" style="stroke: #A80036; stroke-width: 1.0;"/><!--link queue_db_port to queuedb--><path d="M830.72,332.961 C827.859,308.869 823.671,242.533 858,207 C863.544,201.262 867.572,203.895 875.5,203 C921.1,197.855 2481.9,197.855 2527.5,203 C2643.26,216.0615 2769.5925,249.5078 2868.5738,280.3178 C2918.0644,295.7228 2960.7172,310.4687 2991.7917,321.6779 C3007.329,327.2826 3019.9717,332.003 3029.1272,335.4796 C3031.4161,336.3487 3033.4871,337.1401 3035.3308,337.8482 C3036.2527,338.2022 3037.1178,338.5354 3037.9249,338.847 " fill="none" id="queue_db_port-queuedb" style="stroke: #A80036; stroke-width: 1.0;"/><!--link auth_db_port to authdb--><path d="M2568.64,498.969 C2565.58,474.897 2560.84,408.607 2595,373 C2600.52,367.242 2604.57,369.895 2612.5,369 C2638.64,366.051 3533.36,366.051 3559.5,369 C3598.995,373.456 3628.735,406.2073 3648.9038,438.7972 C3658.9881,455.0923 3666.6797,471.3469 3672.0014,484.0042 C3672.334,484.7953 3672.6574,485.5724 3672.9715,486.3345 " fill="none" id="auth_db_port-authdb" style="stroke: #A80036; stroke-width: 1.0;"/><!--link auth to ldap--><path d="M2537.1276,343.1614 C2537.4325,343.1688 2537.7451,343.1764 2538.0654,343.1844 C2543.1896,343.312 2550.2671,343.5211 2558.7298,343.8559 C2575.6553,344.5255 2598.1219,345.6978 2621.5863,347.7264 C2668.515,351.7835 2719.435,359.2655 2738,373 C2764.04,392.264 2779.7075,425.0263 2788.905,453.3328 C2790.0547,456.8711 2791.1033,460.3398 2792.0584,463.7038 C2792.2972,464.5448 2792.5301,465.3792 2792.7573,466.2066 C2792.8141,466.4134 2792.8706,466.6198 2792.9267,466.8258 " fill="none" id="auth-ldap" style="stroke: #A80036; stroke-width: 1.0;"/><polygon fill="#A80036" points="2792.9267,466.8258,2794.4211,457.0909,2791.6128,462.0015,2786.7022,459.1932,2792.9267,466.8258" style="stroke: #A80036; stroke-width: 1.0;"/><!--link ActiveIssuesInQueueQuery to UserDeleteIssueCommand--><!--link UserDeleteIssueCommand to UserIssueQuery--><!--link ActiveIssuesInQueueQuery to UserPatchIssueCommand--><!--link UserPatchIssueCommand to UserSubmitIssueCommand--><!--link UserSubmitIssueCommand to QueueQuery--><!--link UserPatchIssueCommand to QueuesQuery--><!--link QueuesQuery to UserQueuesQuery--><!--link ActiveIssuesQuery to IssueDetailsQuery--><!--link IssueDetailsQuery to IssueProcessingCompleteCommand--><!--link ActiveIssuesQuery to IssueProcessingStartCommand--><!--link IssueProcessingStartCommand to IssueRemoveCommand--><!--link IssueRemoveCommand to IssuesQuery--><!--link IssueProcessingStartCommand to IssueCategoriesQuery--><!--link IssueCategoriesQuery to IssueCategoryRemoveCommand--><!--link IssueCategoryRemoveCommand to IssueCategorySubmitCommand--><!--link LogTokenGenerationCommand to TokenGenerationQuery--><!--link LogTokenGenerationCommand to TokenRevocationCommand--><!--link TokenRevocationCommand to TokenValidationQuery--><!--link field_of_study to issue--><!--link issue to issue_category--><!--link field_of_study to queue_--><!--link queue_ to active_issue_view--><!--link active_issue_view to issue_processing_est_view--><!--
@startuml
scale 1
() https - nginx

cloud "nginx api gateway" as nginx {
}

external - -> nginx
internal - -> nginx




package "API zewnętrzne dla studentów" as external {
folder "przypadki użycia zewnętrzne" {
[ActiveIssuesInQueueQuery]
[UserDeleteIssueCommand]
[UserIssueQuery]
[UserPatchIssueCommand]
[UserSubmitIssueCommand]
[QueueQuery]
[QueuesQuery]
[UserQueuesQuery]
}
}
() external_port - external
() internal_port - internal

package "API wewnętrzne dla dziekanatu" as internal {
folder "przypadki użycia wewnętrzne" {
[ActiveIssuesQuery]
[IssueDetailsQuery]
[IssueProcessingCompleteCommand]
[IssueProcessingStartCommand]
[IssueRemoveCommand]
[IssuesQuery]
[IssueCategoriesQuery]
[IssueCategoryRemoveCommand]
[IssueCategorySubmitCommand]
[QueueQuery]
[QueuesQuery]
}
}

() auth_port - auth
internal - -> auth_port
external - -> auth_port



package "Mail" as mail {
folder "przypadki użycia microserwisu mail" {
[TokenGenerationMessageConsumer]
}
}

rabbit - -> mail
auth - -> rabbit

cloud "RabbitMQ kolejka" as rabbit {
[queue]
}

package "API JWT LDAP autoryzacja/autentykacja" as auth {
folder "przypadki użycia auth" {
[LogTokenGenerationCommand]
[TokenGenerationQuery]
[TokenRevocationCommand]
[TokenValidationQuery]
}
}

internal - -> queue_db_port
external - ->queue_db_port
auth - -> auth_db_port

() queue_db_port - queuedb
() auth_db_port - authdb

database "PostgreSQL 1 instancja" {
folder "queue_db" as queuedb {
[field_of_study]
[issue]
[issue_category]
[queue_]
[active_issue_view]
[issue_processing_est_view]
}
}

database "PostgreSQL 2 instancja" {
folder "authentication_db" as authdb {
[revoked_jwt_token]
[token_generation_audit]
}
}


auth - -> ldap
database "LDAP PW" as ldap {
folder "użytkownicy" {
}
}
@enduml

PlantUML version 1.2019.07beta1(Unknown compile time)
(GPL source distribution)
Java Runtime: Java(TM) SE Runtime Environment
JVM: Java HotSpot(TM) 64-Bit Server VM
Java Version: 1.7.0_25-b15
Operating System: Linux
Default Encoding: UTF-8
Language: en
Country: US
--></g></svg>